<svg xmlns="http://www.w3.org/2000/svg" viewBox="0 0 187.6 187.83"><g id="Layer_2" data-name="Layer 2"><g id="Layer_1-2" data-name="Layer 1"><g id="jiEqAz"><path d="M40.56,112.71V171A93.14,93.14,0,0,1,8.71,133.26C.12,114.7-2,95.33,1.86,75.11h110.4V186a93.38,93.38,0,0,1-37.09,0V112.71Z"/><path d="M150.21,168.31v-3.66q0-35,0-69.89c0-28.32-18.87-51.22-46.62-56.47a60.07,60.07,0,0,0-10.89-.85c-23.48-.08-46.95,0-70.43,0H18.89A92.49,92.49,0,0,1,54.73,8.48,94.93,94.93,0,0,1,99.78.13c40.67,2,76.69,32.79,85.58,73.2C194.43,114.52,174.53,151.33,150.21,168.31Z"/></g></g></g></svg>